<mxfile host="Electron" agent="Mozilla/5.0 (Windows NT 10.0; Win64; x64) AppleWebKit/537.36 (KHTML, like Gecko) draw.io/24.7.17 Chrome/128.0.6613.36 Electron/32.0.1 Safari/537.36" version="24.7.17">
  <diagram name="Page-1" id="93tC5S66kCTcMkhhCj4_">
    <mxGraphModel dx="1701" dy="808" grid="1" gridSize="10" guides="1" tooltips="1" connect="1" arrows="1" fold="1" page="1" pageScale="1" pageWidth="827" pageHeight="1169" math="0" shadow="0">
      <root>
        <mxCell id="0" />
        <mxCell id="1" parent="0" />
        <mxCell id="6ezZ4Y3qVKWqNeKwzV0V-4" value="" style="edgeStyle=orthogonalEdgeStyle;rounded=0;orthogonalLoop=1;jettySize=auto;html=1;" parent="1" source="6ezZ4Y3qVKWqNeKwzV0V-2" target="6ezZ4Y3qVKWqNeKwzV0V-3" edge="1">
          <mxGeometry relative="1" as="geometry" />
        </mxCell>
        <mxCell id="6ezZ4Y3qVKWqNeKwzV0V-2" value="Start" style="strokeWidth=2;html=1;shape=mxgraph.flowchart.start_1;whiteSpace=wrap;" parent="1" vertex="1">
          <mxGeometry x="305" y="340" width="100" height="60" as="geometry" />
        </mxCell>
        <mxCell id="6ezZ4Y3qVKWqNeKwzV0V-6" value="" style="edgeStyle=orthogonalEdgeStyle;rounded=0;orthogonalLoop=1;jettySize=auto;html=1;" parent="1" source="6ezZ4Y3qVKWqNeKwzV0V-3" target="6ezZ4Y3qVKWqNeKwzV0V-5" edge="1">
          <mxGeometry relative="1" as="geometry" />
        </mxCell>
        <mxCell id="6ezZ4Y3qVKWqNeKwzV0V-3" value="num, bil, i : &lt;b&gt;int&lt;/b&gt;&lt;div&gt;bil_prima : &lt;b&gt;bool&lt;/b&gt;&lt;/div&gt;" style="shape=hexagon;perimeter=hexagonPerimeter2;whiteSpace=wrap;html=1;fixedSize=1;strokeWidth=2;" parent="1" vertex="1">
          <mxGeometry x="472" y="330" width="120" height="80" as="geometry" />
        </mxCell>
        <mxCell id="6ezZ4Y3qVKWqNeKwzV0V-8" value="" style="edgeStyle=orthogonalEdgeStyle;rounded=0;orthogonalLoop=1;jettySize=auto;html=1;" parent="1" source="6ezZ4Y3qVKWqNeKwzV0V-5" target="6ezZ4Y3qVKWqNeKwzV0V-7" edge="1">
          <mxGeometry relative="1" as="geometry" />
        </mxCell>
        <mxCell id="6ezZ4Y3qVKWqNeKwzV0V-5" value="Masukan Bilangan&lt;div&gt;cin &amp;gt;&amp;gt; bil&lt;/div&gt;" style="shape=parallelogram;perimeter=parallelogramPerimeter;whiteSpace=wrap;html=1;fixedSize=1;strokeWidth=2;" parent="1" vertex="1">
          <mxGeometry x="646" y="330" width="140" height="80" as="geometry" />
        </mxCell>
        <mxCell id="6ezZ4Y3qVKWqNeKwzV0V-10" value="" style="edgeStyle=orthogonalEdgeStyle;rounded=0;orthogonalLoop=1;jettySize=auto;html=1;" parent="1" source="6ezZ4Y3qVKWqNeKwzV0V-7" target="6ezZ4Y3qVKWqNeKwzV0V-9" edge="1">
          <mxGeometry relative="1" as="geometry" />
        </mxCell>
        <mxCell id="6ezZ4Y3qVKWqNeKwzV0V-20" value="False" style="edgeLabel;html=1;align=center;verticalAlign=middle;resizable=0;points=[];" parent="6ezZ4Y3qVKWqNeKwzV0V-10" vertex="1" connectable="0">
          <mxGeometry x="-0.2" y="-3" relative="1" as="geometry">
            <mxPoint x="5" y="4" as="offset" />
          </mxGeometry>
        </mxCell>
        <mxCell id="6ezZ4Y3qVKWqNeKwzV0V-12" value="" style="edgeStyle=orthogonalEdgeStyle;rounded=0;orthogonalLoop=1;jettySize=auto;html=1;" parent="1" source="6ezZ4Y3qVKWqNeKwzV0V-7" target="6ezZ4Y3qVKWqNeKwzV0V-11" edge="1">
          <mxGeometry relative="1" as="geometry" />
        </mxCell>
        <mxCell id="6ezZ4Y3qVKWqNeKwzV0V-21" value="True" style="edgeLabel;html=1;align=center;verticalAlign=middle;resizable=0;points=[];" parent="6ezZ4Y3qVKWqNeKwzV0V-12" vertex="1" connectable="0">
          <mxGeometry x="-0.3727" y="-4" relative="1" as="geometry">
            <mxPoint x="3" as="offset" />
          </mxGeometry>
        </mxCell>
        <mxCell id="6ezZ4Y3qVKWqNeKwzV0V-7" value="bil &amp;lt;= 1" style="rhombus;whiteSpace=wrap;html=1;strokeWidth=2;" parent="1" vertex="1">
          <mxGeometry x="656" y="454" width="120" height="120" as="geometry" />
        </mxCell>
        <mxCell id="3AdhTFbc9hX_S8Hw4aAe-19" value="" style="edgeStyle=orthogonalEdgeStyle;rounded=0;orthogonalLoop=1;jettySize=auto;html=1;" edge="1" parent="1" source="6ezZ4Y3qVKWqNeKwzV0V-9">
          <mxGeometry relative="1" as="geometry">
            <mxPoint x="331" y="514" as="targetPoint" />
          </mxGeometry>
        </mxCell>
        <mxCell id="6ezZ4Y3qVKWqNeKwzV0V-9" value="bukan bilangan prima" style="whiteSpace=wrap;html=1;strokeWidth=2;" parent="1" vertex="1">
          <mxGeometry x="411" y="484" width="120" height="60" as="geometry" />
        </mxCell>
        <mxCell id="6ezZ4Y3qVKWqNeKwzV0V-14" value="" style="edgeStyle=orthogonalEdgeStyle;rounded=0;orthogonalLoop=1;jettySize=auto;html=1;" parent="1" source="6ezZ4Y3qVKWqNeKwzV0V-11" target="6ezZ4Y3qVKWqNeKwzV0V-13" edge="1">
          <mxGeometry relative="1" as="geometry" />
        </mxCell>
        <mxCell id="6ezZ4Y3qVKWqNeKwzV0V-11" value="num = 2" style="whiteSpace=wrap;html=1;strokeWidth=2;" parent="1" vertex="1">
          <mxGeometry x="656" y="615" width="120" height="60" as="geometry" />
        </mxCell>
        <mxCell id="6ezZ4Y3qVKWqNeKwzV0V-16" value="" style="edgeStyle=orthogonalEdgeStyle;rounded=0;orthogonalLoop=1;jettySize=auto;html=1;" parent="1" source="6ezZ4Y3qVKWqNeKwzV0V-13" target="6ezZ4Y3qVKWqNeKwzV0V-15" edge="1">
          <mxGeometry relative="1" as="geometry" />
        </mxCell>
        <mxCell id="6ezZ4Y3qVKWqNeKwzV0V-19" value="" style="edgeStyle=orthogonalEdgeStyle;rounded=0;orthogonalLoop=1;jettySize=auto;html=1;" parent="1" source="6ezZ4Y3qVKWqNeKwzV0V-13" target="6ezZ4Y3qVKWqNeKwzV0V-18" edge="1">
          <mxGeometry relative="1" as="geometry" />
        </mxCell>
        <mxCell id="6ezZ4Y3qVKWqNeKwzV0V-13" value="num &amp;lt;= bil" style="rhombus;whiteSpace=wrap;html=1;strokeWidth=2;" parent="1" vertex="1">
          <mxGeometry x="666" y="710" width="100" height="100" as="geometry" />
        </mxCell>
        <mxCell id="6ezZ4Y3qVKWqNeKwzV0V-17" style="edgeStyle=orthogonalEdgeStyle;rounded=0;orthogonalLoop=1;jettySize=auto;html=1;entryX=1;entryY=0.5;entryDx=0;entryDy=0;" parent="1" source="6ezZ4Y3qVKWqNeKwzV0V-15" target="6ezZ4Y3qVKWqNeKwzV0V-13" edge="1">
          <mxGeometry relative="1" as="geometry">
            <mxPoint x="803" y="760" as="targetPoint" />
            <Array as="points">
              <mxPoint x="800" y="865" />
              <mxPoint x="800" y="760" />
            </Array>
          </mxGeometry>
        </mxCell>
        <mxCell id="6ezZ4Y3qVKWqNeKwzV0V-15" value="num++" style="whiteSpace=wrap;html=1;strokeWidth=2;" parent="1" vertex="1">
          <mxGeometry x="666" y="840" width="100" height="50" as="geometry" />
        </mxCell>
        <mxCell id="6ezZ4Y3qVKWqNeKwzV0V-25" value="" style="edgeStyle=orthogonalEdgeStyle;rounded=0;orthogonalLoop=1;jettySize=auto;html=1;" parent="1" source="6ezZ4Y3qVKWqNeKwzV0V-18" target="6ezZ4Y3qVKWqNeKwzV0V-24" edge="1">
          <mxGeometry relative="1" as="geometry" />
        </mxCell>
        <mxCell id="6ezZ4Y3qVKWqNeKwzV0V-18" value="bil_prima = true" style="whiteSpace=wrap;html=1;strokeWidth=2;" parent="1" vertex="1">
          <mxGeometry x="512" y="730" width="120" height="60" as="geometry" />
        </mxCell>
        <mxCell id="6ezZ4Y3qVKWqNeKwzV0V-27" value="" style="edgeStyle=orthogonalEdgeStyle;rounded=0;orthogonalLoop=1;jettySize=auto;html=1;" parent="1" source="6ezZ4Y3qVKWqNeKwzV0V-24" target="6ezZ4Y3qVKWqNeKwzV0V-26" edge="1">
          <mxGeometry relative="1" as="geometry" />
        </mxCell>
        <mxCell id="6ezZ4Y3qVKWqNeKwzV0V-24" value="i = 2" style="whiteSpace=wrap;html=1;strokeWidth=2;" parent="1" vertex="1">
          <mxGeometry x="352" y="730" width="120" height="60" as="geometry" />
        </mxCell>
        <mxCell id="3AdhTFbc9hX_S8Hw4aAe-2" value="" style="edgeStyle=orthogonalEdgeStyle;rounded=0;orthogonalLoop=1;jettySize=auto;html=1;" edge="1" parent="1" source="6ezZ4Y3qVKWqNeKwzV0V-26" target="3AdhTFbc9hX_S8Hw4aAe-1">
          <mxGeometry relative="1" as="geometry" />
        </mxCell>
        <mxCell id="3AdhTFbc9hX_S8Hw4aAe-5" value="" style="edgeStyle=orthogonalEdgeStyle;rounded=0;orthogonalLoop=1;jettySize=auto;html=1;" edge="1" parent="1" source="6ezZ4Y3qVKWqNeKwzV0V-26" target="3AdhTFbc9hX_S8Hw4aAe-4">
          <mxGeometry relative="1" as="geometry" />
        </mxCell>
        <mxCell id="6ezZ4Y3qVKWqNeKwzV0V-26" value="i * i &amp;lt; num" style="rhombus;whiteSpace=wrap;html=1;strokeWidth=2;" parent="1" vertex="1">
          <mxGeometry x="357" y="840" width="110" height="110" as="geometry" />
        </mxCell>
        <mxCell id="3AdhTFbc9hX_S8Hw4aAe-3" style="edgeStyle=orthogonalEdgeStyle;rounded=0;orthogonalLoop=1;jettySize=auto;html=1;entryX=1;entryY=0.5;entryDx=0;entryDy=0;" edge="1" parent="1" source="3AdhTFbc9hX_S8Hw4aAe-1" target="6ezZ4Y3qVKWqNeKwzV0V-26">
          <mxGeometry relative="1" as="geometry">
            <mxPoint x="492" y="900" as="targetPoint" />
            <Array as="points">
              <mxPoint x="541" y="1030" />
              <mxPoint x="541" y="895" />
            </Array>
          </mxGeometry>
        </mxCell>
        <mxCell id="3AdhTFbc9hX_S8Hw4aAe-1" value="i++" style="whiteSpace=wrap;html=1;strokeWidth=2;" vertex="1" parent="1">
          <mxGeometry x="352" y="1000" width="120" height="60" as="geometry" />
        </mxCell>
        <mxCell id="3AdhTFbc9hX_S8Hw4aAe-9" value="" style="edgeStyle=orthogonalEdgeStyle;rounded=0;orthogonalLoop=1;jettySize=auto;html=1;" edge="1" parent="1" source="3AdhTFbc9hX_S8Hw4aAe-4" target="3AdhTFbc9hX_S8Hw4aAe-8">
          <mxGeometry relative="1" as="geometry" />
        </mxCell>
        <mxCell id="3AdhTFbc9hX_S8Hw4aAe-4" value="num % i == 0" style="rhombus;whiteSpace=wrap;html=1;strokeWidth=2;" vertex="1" parent="1">
          <mxGeometry x="185" y="840" width="110" height="110" as="geometry" />
        </mxCell>
        <mxCell id="3AdhTFbc9hX_S8Hw4aAe-13" value="" style="edgeStyle=orthogonalEdgeStyle;rounded=0;orthogonalLoop=1;jettySize=auto;html=1;" edge="1" parent="1" source="3AdhTFbc9hX_S8Hw4aAe-8" target="3AdhTFbc9hX_S8Hw4aAe-12">
          <mxGeometry relative="1" as="geometry" />
        </mxCell>
        <mxCell id="3AdhTFbc9hX_S8Hw4aAe-8" value="bil_prima = false" style="whiteSpace=wrap;html=1;strokeWidth=2;" vertex="1" parent="1">
          <mxGeometry x="29" y="865" width="120" height="60" as="geometry" />
        </mxCell>
        <mxCell id="3AdhTFbc9hX_S8Hw4aAe-15" value="" style="edgeStyle=orthogonalEdgeStyle;rounded=0;orthogonalLoop=1;jettySize=auto;html=1;" edge="1" parent="1" source="3AdhTFbc9hX_S8Hw4aAe-12" target="3AdhTFbc9hX_S8Hw4aAe-14">
          <mxGeometry relative="1" as="geometry" />
        </mxCell>
        <mxCell id="3AdhTFbc9hX_S8Hw4aAe-12" value="bil_prima = true" style="rhombus;whiteSpace=wrap;html=1;strokeWidth=2;" vertex="1" parent="1">
          <mxGeometry x="6.5" y="630" width="165" height="165" as="geometry" />
        </mxCell>
        <mxCell id="3AdhTFbc9hX_S8Hw4aAe-17" value="" style="edgeStyle=orthogonalEdgeStyle;rounded=0;orthogonalLoop=1;jettySize=auto;html=1;" edge="1" parent="1" source="3AdhTFbc9hX_S8Hw4aAe-14" target="3AdhTFbc9hX_S8Hw4aAe-16">
          <mxGeometry relative="1" as="geometry" />
        </mxCell>
        <mxCell id="3AdhTFbc9hX_S8Hw4aAe-14" value="cout &amp;lt;&amp;lt; num &amp;lt;&amp;lt; &quot; &quot;" style="whiteSpace=wrap;html=1;strokeWidth=2;" vertex="1" parent="1">
          <mxGeometry x="28" y="485.5" width="120" height="60" as="geometry" />
        </mxCell>
        <mxCell id="3AdhTFbc9hX_S8Hw4aAe-16" value="End" style="strokeWidth=2;html=1;shape=mxgraph.flowchart.start_1;whiteSpace=wrap;" vertex="1" parent="1">
          <mxGeometry x="230" y="485" width="100" height="60" as="geometry" />
        </mxCell>
      </root>
    </mxGraphModel>
  </diagram>
</mxfile>
